<svg xmlns="http://www.w3.org/2000/svg" width="100%" height="100%" viewBox="0 0 288.075 249.628"><path d="M.037 249.12 144.037 0l.293.212L288.075 249.48l-.33.148L0 249.48" fill="param(fill) #FFF" stroke="param(outline) #000" stroke-width="param(outline-width) 0.43" /><path d="m108.037 145.44 36 20.88L0 249.48l144.037-83.16m36.083-20.737-36.083 20.737V0v166.32m-.082 41.617.082-41.617 144.038 83.16-144.038-83.16" fill="param(fill) #FFF" stroke="param(outline) #000" stroke-width="param(outline-width) 0.43" /><path d="M.037 249.12 144.037 0l.293.212L288.075 249.48l-.33.148L0 249.48" fill="param(fill) #FFF" stroke="param(outline) #000" stroke-width="param(outline-width) 0.43" transform="rotate(180 144.0375 124.814) translate(144.0375)" /><path d="M.037 249.12 144.037 0l.293.212L288.075 249.48l-.33.148L0 249.48" fill="param(fill) #FFF" stroke="param(outline) #000" stroke-width="param(outline-width) 0.43" transform="rotate(180 144.0375 124.814) translate(-144.0375)" /><path d="m108.037 145.44 36 20.88L0 249.48l144.037-83.16m36.083-20.737-36.083 20.737V0v166.32m-.082 41.617.082-41.617 144.038 83.16-144.038-83.16" fill="param(fill) #FFF" stroke="param(outline) #000" stroke-width="param(outline-width) 0.43" transform="rotate(180 144.0375 124.814) translate(144.0375)" /><path d="m108.037 145.44 36 20.88L0 249.48l144.037-83.16m36.083-20.737-36.083 20.737V0v166.32m-.082 41.617.082-41.617 144.038 83.16-144.038-83.16" fill="param(fill) #FFF" stroke="param(outline) #000" stroke-width="param(outline-width) 0.43" transform="rotate(180 144.0375 124.814) translate(-144.0375)" /></svg>