<svg xmlns="http://www.w3.org/2000/svg" width="100%" height="100%" viewBox="0 0 288.075 249.628"><path d="M.037 249.12 144.037 0l.293.212L288.075 249.48l-.33.148L0 249.48m91.735.047 97.95-170.665m-91.556.559 98.825 170.16m45.294-79.569-196.775.505m13.251 78.993L173.722 51.18m-59.072-.338 114.259 198.755m29.83-50.989-229.258-.426m.436 51.311L159.161 25.929m-30.093-.026 128.99 223.71m15.069-26.048-258.233-.147" fill="param(fill) #FFF" stroke="param(outline) #000" stroke-width="param(outline-width) 0.43" /><path d="M.037 249.12 144.037 0l.293.212L288.075 249.48l-.33.148L0 249.48m91.735.047 97.95-170.665m-91.556.559 98.825 170.16m45.294-79.569-196.775.505m13.251 78.993L173.722 51.18m-59.072-.338 114.259 198.755m29.83-50.989-229.258-.426m.436 51.311L159.161 25.929m-30.093-.026 128.99 223.71m15.069-26.048-258.233-.147" fill="param(fill) #FFF" stroke="param(outline) #000" stroke-width="param(outline-width) 0.43" transform="rotate(180 144.0375 124.814) translate(144.0375)" /><path d="M.037 249.12 144.037 0l.293.212L288.075 249.48l-.33.148L0 249.48m91.735.047 97.95-170.665m-91.556.559 98.825 170.16m45.294-79.569-196.775.505m13.251 78.993L173.722 51.18m-59.072-.338 114.259 198.755m29.83-50.989-229.258-.426m.436 51.311L159.161 25.929m-30.093-.026 128.99 223.71m15.069-26.048-258.233-.147" fill="param(fill) #FFF" stroke="param(outline) #000" stroke-width="param(outline-width) 0.43" transform="rotate(180 144.0375 124.814) translate(-144.0375)" /></svg>