<svg xmlns="http://www.w3.org/2000/svg" width="100%" height="100%" viewBox="0 0 288.075 249.628"><path d="M.037 249.12 144.037 0l.293.212L288.075 249.48l-.33.148L0 249.48M59.968 145.44l168.193.143m-24.006-41.629-84.22 145.588m48.055.024-83.973-145.73" fill="param(fill) #FFF" stroke="param(outline) #000" stroke-width="param(outline-width) 0.43" /><path d="M.037 249.12 144.037 0l.293.212L288.075 249.48l-.33.148L0 249.48M59.968 145.44l168.193.143m-24.006-41.629-84.22 145.588m48.055.024-83.973-145.73" fill="param(fill) #FFF" stroke="param(outline) #000" stroke-width="param(outline-width) 0.43" transform="rotate(180 144.0375 124.814) translate(144.0375)" /><path d="M.037 249.12 144.037 0l.293.212L288.075 249.48l-.33.148L0 249.48M59.968 145.44l168.193.143m-24.006-41.629-84.22 145.588m48.055.024-83.973-145.73" fill="param(fill) #FFF" stroke="param(outline) #000" stroke-width="param(outline-width) 0.43" transform="rotate(180 144.0375 124.814) translate(-144.0375)" /></svg>