<svg xmlns="http://www.w3.org/2000/svg" width="100%" height="100%" viewBox="0 0 288.075 249.628"><path d="M.037 249.12 144.037 0l.293.212L288.075 249.48l-.33.148L0 249.48" fill="param(fill) #FFF" stroke="param(outline) #000" stroke-width="param(outline-width) 0.215" /><g fill="none" stroke="#000" stroke-width=".72"><path d="m47.899 166.32 96.138-79.127 96.082 79.127" fill="param(fill) #FFF" stroke="param(outline) #000" stroke-width="param(outline-width) 0.215" /><path d="m192.107 83.061 20.456 122.822L95.996 249.53" fill="param(fill) #FFF" stroke="param(outline) #000" stroke-width="param(outline-width) 0.215" /><path d="M192.107 249.579 75.512 205.883 95.996 83.111" fill="param(fill) #FFF" stroke="param(outline) #000" stroke-width="param(outline-width) 0.215" /></g><path d="M.037 249.12 144.037 0l.293.212L288.075 249.48l-.33.148L0 249.48" fill="param(fill) #FFF" stroke="param(outline) #000" stroke-width="param(outline-width) 0.215" transform="rotate(180 144.0375 124.814) translate(144.0375)" /><path d="M.037 249.12 144.037 0l.293.212L288.075 249.48l-.33.148L0 249.48" fill="param(fill) #FFF" stroke="param(outline) #000" stroke-width="param(outline-width) 0.215" transform="rotate(180 144.0375 124.814) translate(-144.0375)" /><path d="m47.899 166.32 96.138-79.127 96.082 79.127" fill="param(fill) #FFF" stroke="param(outline) #000" stroke-width="param(outline-width) 0.215" transform="rotate(180 144.0375 124.814) translate(144.0375)" /><path d="m47.899 166.32 96.138-79.127 96.082 79.127" fill="param(fill) #FFF" stroke="param(outline) #000" stroke-width="param(outline-width) 0.215" transform="rotate(180 144.0375 124.814) translate(-144.0375)" /><path d="m192.107 83.061 20.456 122.822L95.996 249.53" fill="param(fill) #FFF" stroke="param(outline) #000" stroke-width="param(outline-width) 0.215" transform="rotate(180 144.0375 124.814) translate(144.0375)" /><path d="m192.107 83.061 20.456 122.822L95.996 249.53" fill="param(fill) #FFF" stroke="param(outline) #000" stroke-width="param(outline-width) 0.215" transform="rotate(180 144.0375 124.814) translate(-144.0375)" /><path d="M192.107 249.579 75.512 205.883 95.996 83.111" fill="param(fill) #FFF" stroke="param(outline) #000" stroke-width="param(outline-width) 0.215" transform="rotate(180 144.0375 124.814) translate(144.0375)" /><path d="M192.107 249.579 75.512 205.883 95.996 83.111" fill="param(fill) #FFF" stroke="param(outline) #000" stroke-width="param(outline-width) 0.215" transform="rotate(180 144.0375 124.814) translate(-144.0375)" /></svg>