<svg xmlns="http://www.w3.org/2000/svg" width="100%" height="100%" viewBox="0 0 288.075 249.941"><g fill="none" stroke="#000" stroke-width=".72"><path d="M.037 249.12 144.037 0l.293.212L288.075 249.48l-.33.148L0 249.48M112.684 54.232l62.88.143m81.221 140.835-31.564 54.386m-162.578-.079L31.327 194.99M108.037 61.432l72.083.143m72.753 126.012-36.165 62.354m-145.506-.001-35.918-62.496" fill="param(fill) #FFF" stroke="param(outline) #000" stroke-width="param(outline-width) 0.43" /><path d="m144.037 166.32-97.052 55.933 97.052-55.933m0 0 .087-112.016-.087 112.016m0 0 96.966 56.083-96.966-56.083" fill="param(fill) #FFF" stroke="param(outline) #000" stroke-width="param(outline-width) 0.43" /></g><path d="M.037 249.12 144.037 0l.293.212L288.075 249.48l-.33.148L0 249.48M112.684 54.232l62.88.143m81.221 140.835-31.564 54.386m-162.578-.079L31.327 194.99M108.037 61.432l72.083.143m72.753 126.012-36.165 62.354m-145.506-.001-35.918-62.496" fill="param(fill) #FFF" stroke="param(outline) #000" stroke-width="param(outline-width) 0.43" transform="rotate(180 144.0375 124.9705) translate(144.0375)" /><path d="M.037 249.12 144.037 0l.293.212L288.075 249.48l-.33.148L0 249.48M112.684 54.232l62.88.143m81.221 140.835-31.564 54.386m-162.578-.079L31.327 194.99M108.037 61.432l72.083.143m72.753 126.012-36.165 62.354m-145.506-.001-35.918-62.496" fill="param(fill) #FFF" stroke="param(outline) #000" stroke-width="param(outline-width) 0.43" transform="rotate(180 144.0375 124.9705) translate(-144.0375)" /><path d="m144.037 166.32-97.052 55.933 97.052-55.933m0 0 .087-112.016-.087 112.016m0 0 96.966 56.083-96.966-56.083" fill="param(fill) #FFF" stroke="param(outline) #000" stroke-width="param(outline-width) 0.43" transform="rotate(180 144.0375 124.9705) translate(144.0375)" /><path d="m144.037 166.32-97.052 55.933 97.052-55.933m0 0 .087-112.016-.087 112.016m0 0 96.966 56.083-96.966-56.083" fill="param(fill) #FFF" stroke="param(outline) #000" stroke-width="param(outline-width) 0.43" transform="rotate(180 144.0375 124.9705) translate(-144.0375)" /></svg>