<svg xmlns="http://www.w3.org/2000/svg" width="100%" height="100%" viewBox="0 0 288.075 249.941"><g fill="none" stroke="#000" stroke-width=".72"><path d="M.037 249.12 144.037 0l.293.212L288.075 249.48l-.33.148L0 249.48m144.037-83.16L0 249.48l144.037-83.16m0 0V0v166.32" fill="param(fill) #FFF" stroke="param(outline) #000" stroke-width="param(outline-width) 0.215" /><path d="m144.037 166.32 144.038 83.16-144.038-83.16M71.202 249.94l109.423-62.496M108.037 61.432l-.588 126.012m145.424.143-108.836-63.515M35.284 187.444l108.753-63.084m36.083-62.785.256 125.725m36.332 62.64L107.699 187.3" fill="param(fill) #FFF" stroke="param(outline) #000" stroke-width="param(outline-width) 0.215" /></g><path d="M.037 249.12 144.037 0l.293.212L288.075 249.48l-.33.148L0 249.48m144.037-83.16L0 249.48l144.037-83.16m0 0V0v166.32" fill="param(fill) #FFF" stroke="param(outline) #000" stroke-width="param(outline-width) 0.215" transform="rotate(180 144.0375 124.9705) translate(144.0375)" /><path d="M.037 249.12 144.037 0l.293.212L288.075 249.48l-.33.148L0 249.48m144.037-83.16L0 249.48l144.037-83.16m0 0V0v166.32" fill="param(fill) #FFF" stroke="param(outline) #000" stroke-width="param(outline-width) 0.215" transform="rotate(180 144.0375 124.9705) translate(-144.0375)" /><path d="m144.037 166.32 144.038 83.16-144.038-83.16M71.202 249.94l109.423-62.496M108.037 61.432l-.588 126.012m145.424.143-108.836-63.515M35.284 187.444l108.753-63.084m36.083-62.785.256 125.725m36.332 62.64L107.699 187.3" fill="param(fill) #FFF" stroke="param(outline) #000" stroke-width="param(outline-width) 0.215" transform="rotate(180 144.0375 124.9705) translate(144.0375)" /><path d="m144.037 166.32 144.038 83.16-144.038-83.16M71.202 249.94l109.423-62.496M108.037 61.432l-.588 126.012m145.424.143-108.836-63.515M35.284 187.444l108.753-63.084m36.083-62.785.256 125.725m36.332 62.64L107.699 187.3" fill="param(fill) #FFF" stroke="param(outline) #000" stroke-width="param(outline-width) 0.215" transform="rotate(180 144.0375 124.9705) translate(-144.0375)" /></svg>