<svg xmlns="http://www.w3.org/2000/svg" width="100%" height="100%" viewBox="0 0 288.075 249.941"><g fill="none" stroke="#000" stroke-width=".72"><path d="M.037 249.12 144.037 0l.293.212L288.075 249.48l-.33.148L0 249.48M120.912 39.858l46.334.092m97.874 169.574-23.247 40.08m-195.793-.025-23.087-40.173M108.037 61.432l72.083.143m72.753 126.012-36.165 62.354m-145.506-.001-35.918-62.496" fill="param(fill) #FFF" stroke="param(outline) #000" stroke-width="param(outline-width) 0.43" /><path d="m144.037 166.32-109.5 63.172 109.5-63.172m0 0 .042-126.416-.042 126.416m0 0 109.46 63.244-109.46-63.244" fill="param(fill) #FFF" stroke="param(outline) #000" stroke-width="param(outline-width) 0.43" /></g><path d="M.037 249.12 144.037 0l.293.212L288.075 249.48l-.33.148L0 249.48M120.912 39.858l46.334.092m97.874 169.574-23.247 40.08m-195.793-.025-23.087-40.173M108.037 61.432l72.083.143m72.753 126.012-36.165 62.354m-145.506-.001-35.918-62.496" fill="param(fill) #FFF" stroke="param(outline) #000" stroke-width="param(outline-width) 0.43" transform="rotate(180 144.0375 124.9705) translate(144.0375)" /><path d="M.037 249.12 144.037 0l.293.212L288.075 249.48l-.33.148L0 249.48M120.912 39.858l46.334.092m97.874 169.574-23.247 40.08m-195.793-.025-23.087-40.173M108.037 61.432l72.083.143m72.753 126.012-36.165 62.354m-145.506-.001-35.918-62.496" fill="param(fill) #FFF" stroke="param(outline) #000" stroke-width="param(outline-width) 0.43" transform="rotate(180 144.0375 124.9705) translate(-144.0375)" /><path d="m144.037 166.32-109.5 63.172 109.5-63.172m0 0 .042-126.416-.042 126.416m0 0 109.46 63.244-109.46-63.244" fill="param(fill) #FFF" stroke="param(outline) #000" stroke-width="param(outline-width) 0.43" transform="rotate(180 144.0375 124.9705) translate(144.0375)" /><path d="m144.037 166.32-109.5 63.172 109.5-63.172m0 0 .042-126.416-.042 126.416m0 0 109.46 63.244-109.46-63.244" fill="param(fill) #FFF" stroke="param(outline) #000" stroke-width="param(outline-width) 0.43" transform="rotate(180 144.0375 124.9705) translate(-144.0375)" /></svg>