<svg xmlns="http://www.w3.org/2000/svg" width="100%" height="100%" viewBox="0 0 288.075 249.628"><g fill="none" stroke="#000" stroke-width=".72"><path d="M.037 249.12 144.037 0l.293.212L288.075 249.48l-.33.148L0 249.48" fill="param(fill) #FFF" stroke="param(outline) #000" stroke-width="param(outline-width) 0.43" /><path d="M143.872 249.554 72.39 207.686l-.352-83.126" fill="param(fill) #FFF" stroke="param(outline) #000" stroke-width="param(outline-width) 0.43" /><path d="m72.037 124.56 72-40.973 72.166 41.26" fill="param(fill) #FFF" stroke="param(outline) #000" stroke-width="param(outline-width) 0.43" /><path d="m216.203 124.846-.517 82.84-71.814 41.868M0 249.48l72.389-41.794M144.037 0v83.587M288.075 249.48l-72.389-41.794" fill="param(fill) #FFF" stroke="param(outline) #000" stroke-width="param(outline-width) 0.43" /></g><path d="M.037 249.12 144.037 0l.293.212L288.075 249.48l-.33.148L0 249.48" fill="param(fill) #FFF" stroke="param(outline) #000" stroke-width="param(outline-width) 0.43" transform="rotate(180 144.0375 124.814) translate(144.0375)" /><path d="M.037 249.12 144.037 0l.293.212L288.075 249.48l-.33.148L0 249.48" fill="param(fill) #FFF" stroke="param(outline) #000" stroke-width="param(outline-width) 0.43" transform="rotate(180 144.0375 124.814) translate(-144.0375)" /><path d="M143.872 249.554 72.39 207.686l-.352-83.126" fill="param(fill) #FFF" stroke="param(outline) #000" stroke-width="param(outline-width) 0.43" transform="rotate(180 144.0375 124.814) translate(144.0375)" /><path d="M143.872 249.554 72.39 207.686l-.352-83.126" fill="param(fill) #FFF" stroke="param(outline) #000" stroke-width="param(outline-width) 0.43" transform="rotate(180 144.0375 124.814) translate(-144.0375)" /><path d="m72.037 124.56 72-40.973 72.166 41.26" fill="param(fill) #FFF" stroke="param(outline) #000" stroke-width="param(outline-width) 0.43" transform="rotate(180 144.0375 124.814) translate(144.0375)" /><path d="m72.037 124.56 72-40.973 72.166 41.26" fill="param(fill) #FFF" stroke="param(outline) #000" stroke-width="param(outline-width) 0.43" transform="rotate(180 144.0375 124.814) translate(-144.0375)" /><path d="m216.203 124.846-.517 82.84-71.814 41.868M0 249.48l72.389-41.794M144.037 0v83.587M288.075 249.48l-72.389-41.794" fill="param(fill) #FFF" stroke="param(outline) #000" stroke-width="param(outline-width) 0.43" transform="rotate(180 144.0375 124.814) translate(144.0375)" /><path d="m216.203 124.846-.517 82.84-71.814 41.868M0 249.48l72.389-41.794M144.037 0v83.587M288.075 249.48l-72.389-41.794" fill="param(fill) #FFF" stroke="param(outline) #000" stroke-width="param(outline-width) 0.43" transform="rotate(180 144.0375 124.814) translate(-144.0375)" /></svg>